<svg width="87" height="23" viewBox="0 0 87 23" fill="none" xmlns="http://www.w3.org/2000/svg">
            <path
              d="M11.672 11.48C11.368 10.92 10.928 10.496 10.352 10.208C9.79199 9.90399 9.12799 9.75199 8.35999 9.75199C7.03199 9.75199 5.96799 10.192 5.16799 11.072C4.36799 11.936 3.96799 13.096 3.96799 14.552C3.96799 16.104 4.38399 17.32 5.21599 18.2C6.06399 19.064 7.22399 19.496 8.69599 19.496C9.70399 19.496 10.552 19.24 11.24 18.728C11.944 18.216 12.456 17.48 12.776 16.52H7.56799V13.496H16.496V17.312C16.192 18.336 15.672 19.288 14.936 20.168C14.216 21.048 13.296 21.76 12.176 22.304C11.056 22.848 9.79199 23.12 8.38399 23.12C6.71999 23.12 5.23199 22.76 3.91999 22.04C2.62399 21.304 1.60799 20.288 0.871992 18.992C0.151992 17.696 -0.208008 16.216 -0.208008 14.552C-0.208008 12.888 0.151992 11.408 0.871992 10.112C1.60799 8.79999 2.62399 7.78399 3.91999 7.06399C5.21599 6.32799 6.69599 5.95999 8.35999 5.95999C10.376 5.95999 12.072 6.44799 13.448 7.42399C14.84 8.39999 15.76 9.75199 16.208 11.48H11.672Z"
              fill="black" />
            <path
              d="M17.9532 16.28C17.9532 14.904 18.2092 13.696 18.7212 12.656C19.2492 11.616 19.9612 10.816 20.8572 10.256C21.7532 9.69599 22.7532 9.41599 23.8572 9.41599C24.8012 9.41599 25.6252 9.60799 26.3292 9.99199C27.0492 10.376 27.6012 10.88 27.9852 11.504V9.60799H32.0892V23H27.9852V21.104C27.5852 21.728 27.0252 22.232 26.3052 22.616C25.6012 23 24.7772 23.192 23.8332 23.192C22.7452 23.192 21.7532 22.912 20.8572 22.352C19.9612 21.776 19.2492 20.968 18.7212 19.928C18.2092 18.872 17.9532 17.656 17.9532 16.28ZM27.9852 16.304C27.9852 15.28 27.6972 14.472 27.1212 13.88C26.5612 13.288 25.8732 12.992 25.0572 12.992C24.2412 12.992 23.5452 13.288 22.9692 13.88C22.4092 14.456 22.1292 15.256 22.1292 16.28C22.1292 17.304 22.4092 18.12 22.9692 18.728C23.5452 19.32 24.2412 19.616 25.0572 19.616C25.8732 19.616 26.5612 19.32 27.1212 18.728C27.6972 18.136 27.9852 17.328 27.9852 16.304Z"
              fill="black" />
            <path
              d="M39.1623 11.504C39.5463 10.88 40.0983 10.376 40.8183 9.99199C41.5383 9.60799 42.3623 9.41599 43.2903 9.41599C44.3943 9.41599 45.3943 9.69599 46.2903 10.256C47.1863 10.816 47.8903 11.616 48.4023 12.656C48.9303 13.696 49.1943 14.904 49.1943 16.28C49.1943 17.656 48.9303 18.872 48.4023 19.928C47.8903 20.968 47.1863 21.776 46.2903 22.352C45.3943 22.912 44.3943 23.192 43.2903 23.192C42.3463 23.192 41.5223 23.008 40.8183 22.64C40.1143 22.256 39.5623 21.752 39.1623 21.128V23H35.0583V5.23999H39.1623V11.504ZM45.0183 16.28C45.0183 15.256 44.7303 14.456 44.1543 13.88C43.5943 13.288 42.8983 12.992 42.0663 12.992C41.2503 12.992 40.5543 13.288 39.9783 13.88C39.4183 14.472 39.1383 15.28 39.1383 16.304C39.1383 17.328 39.4183 18.136 39.9783 18.728C40.5543 19.32 41.2503 19.616 42.0663 19.616C42.8823 19.616 43.5783 19.32 44.1543 18.728C44.7303 18.12 45.0183 17.304 45.0183 16.28Z"
              fill="black" />
            <path
              d="M55.4514 11.504C55.8354 10.88 56.3874 10.376 57.1074 9.99199C57.8274 9.60799 58.6514 9.41599 59.5794 9.41599C60.6834 9.41599 61.6834 9.69599 62.5794 10.256C63.4754 10.816 64.1794 11.616 64.6914 12.656C65.2194 13.696 65.4834 14.904 65.4834 16.28C65.4834 17.656 65.2194 18.872 64.6914 19.928C64.1794 20.968 63.4754 21.776 62.5794 22.352C61.6834 22.912 60.6834 23.192 59.5794 23.192C58.6354 23.192 57.8114 23.008 57.1074 22.64C56.4034 22.256 55.8514 21.752 55.4514 21.128V23H51.3474V5.23999H55.4514V11.504ZM61.3074 16.28C61.3074 15.256 61.0194 14.456 60.4434 13.88C59.8834 13.288 59.1874 12.992 58.3554 12.992C57.5394 12.992 56.8434 13.288 56.2674 13.88C55.7074 14.472 55.4274 15.28 55.4274 16.304C55.4274 17.328 55.7074 18.136 56.2674 18.728C56.8434 19.32 57.5394 19.616 58.3554 19.616C59.1714 19.616 59.8674 19.32 60.4434 18.728C61.0194 18.12 61.3074 17.304 61.3074 16.28Z"
              fill="black" />
            <path d="M71.7404 9.60799V23H67.6364V9.60799H71.7404Z" fill="black" />
            <path
              d="M87.3386 16.088C87.3386 16.472 87.3146 16.872 87.2666 17.288H77.9786C78.0426 18.12 78.3066 18.76 78.7706 19.208C79.2506 19.64 79.8346 19.856 80.5226 19.856C81.5466 19.856 82.2586 19.424 82.6586 18.56H87.0266C86.8026 19.44 86.3946 20.232 85.8026 20.936C85.2266 21.64 84.4986 22.192 83.6186 22.592C82.7386 22.992 81.7546 23.192 80.6666 23.192C79.3546 23.192 78.1866 22.912 77.1626 22.352C76.1386 21.792 75.3386 20.992 74.7626 19.952C74.1866 18.912 73.8986 17.696 73.8986 16.304C73.8986 14.912 74.1786 13.696 74.7386 12.656C75.3146 11.616 76.1146 10.816 77.1386 10.256C78.1626 9.69599 79.3386 9.41599 80.6666 9.41599C81.9626 9.41599 83.1146 9.68799 84.1226 10.232C85.1306 10.776 85.9146 11.552 86.4746 12.56C87.0506 13.568 87.3386 14.744 87.3386 16.088ZM83.1386 15.008C83.1386 14.304 82.8986 13.744 82.4186 13.328C81.9386 12.912 81.3386 12.704 80.6186 12.704C79.9306 12.704 79.3466 12.904 78.8666 13.304C78.4026 13.704 78.1146 14.272 78.0026 15.008H83.1386Z"
              fill="black" />
            <path
              d="M3.50453 0C3.46461 0 3.42888 0.0133744 3.4066 0.0338921C3.38432 0.0133744 3.34859 0 3.30867 0C3.24096 0 3.18604 0.0379956 3.18604 0.0849581C3.18604 0.103044 3.19023 0.119763 3.1975 0.135265C3.23235 0.211256 3.33977 0.256699 3.39292 0.269161C3.40042 0.270985 3.41277 0.270985 3.42027 0.269161C3.47343 0.256699 3.58084 0.211256 3.61569 0.135265C3.62297 0.119763 3.62716 0.103044 3.62716 0.0849581C3.62716 0.0379956 3.57224 0 3.50453 0Z"
              fill="#E72C03" />
            <path
              d="M71.498 0C70.6835 0 69.9545 0.396 69.5 1.0035C69.0455 0.396 68.3165 0 67.502 0C66.1205 0 65 1.125 65 2.5155C65 3.051 65.0855 3.54602 65.234 4.00502C65.945 6.25502 68.1365 7.60052 69.221 7.96952C69.374 8.02352 69.626 8.02352 69.779 7.96952C70.8635 7.60052 73.055 6.25502 73.766 4.00502C73.9145 3.54602 74 3.051 74 2.5155C74 1.125 72.8795 0 71.498 0Z"
              fill="#E72C03" />
          </svg>