<svg width="89" height="24" viewBox="0 0 89 24" fill="none" xmlns="http://www.w3.org/2000/svg">
<path d="M12.672 11.48C12.368 10.92 11.928 10.496 11.352 10.208C10.792 9.90399 10.128 9.75199 9.35999 9.75199C8.03199 9.75199 6.96799 10.192 6.16799 11.072C5.36799 11.936 4.96799 13.096 4.96799 14.552C4.96799 16.104 5.38399 17.32 6.21599 18.2C7.06399 19.064 8.22399 19.496 9.69599 19.496C10.704 19.496 11.552 19.24 12.24 18.728C12.944 18.216 13.456 17.48 13.776 16.52H8.56799V13.496H17.496V17.312C17.192 18.336 16.672 19.288 15.936 20.168C15.216 21.048 14.296 21.76 13.176 22.304C12.056 22.848 10.792 23.12 9.38399 23.12C7.71999 23.12 6.23199 22.76 4.91999 22.04C3.62399 21.304 2.60799 20.288 1.87199 18.992C1.15199 17.696 0.791992 16.216 0.791992 14.552C0.791992 12.888 1.15199 11.408 1.87199 10.112C2.60799 8.79999 3.62399 7.78399 4.91999 7.06399C6.21599 6.32799 7.69599 5.95999 9.35999 5.95999C11.376 5.95999 13.072 6.44799 14.448 7.42399C15.84 8.39999 16.76 9.75199 17.208 11.48H12.672Z" fill="white"/>
<path d="M18.9532 16.28C18.9532 14.904 19.2092 13.696 19.7212 12.656C20.2492 11.616 20.9612 10.816 21.8572 10.256C22.7532 9.69599 23.7532 9.41599 24.8572 9.41599C25.8012 9.41599 26.6252 9.60799 27.3292 9.99199C28.0492 10.376 28.6012 10.88 28.9852 11.504V9.60799H33.0892V23H28.9852V21.104C28.5852 21.728 28.0252 22.232 27.3052 22.616C26.6012 23 25.7772 23.192 24.8332 23.192C23.7452 23.192 22.7532 22.912 21.8572 22.352C20.9612 21.776 20.2492 20.968 19.7212 19.928C19.2092 18.872 18.9532 17.656 18.9532 16.28ZM28.9852 16.304C28.9852 15.28 28.6972 14.472 28.1212 13.88C27.5612 13.288 26.8732 12.992 26.0572 12.992C25.2412 12.992 24.5452 13.288 23.9692 13.88C23.4092 14.456 23.1292 15.256 23.1292 16.28C23.1292 17.304 23.4092 18.12 23.9692 18.728C24.5452 19.32 25.2412 19.616 26.0572 19.616C26.8732 19.616 27.5612 19.32 28.1212 18.728C28.6972 18.136 28.9852 17.328 28.9852 16.304Z" fill="white"/>
<path d="M40.1623 11.504C40.5463 10.88 41.0983 10.376 41.8183 9.99199C42.5383 9.60799 43.3623 9.41599 44.2903 9.41599C45.3943 9.41599 46.3943 9.69599 47.2903 10.256C48.1863 10.816 48.8903 11.616 49.4023 12.656C49.9303 13.696 50.1943 14.904 50.1943 16.28C50.1943 17.656 49.9303 18.872 49.4023 19.928C48.8903 20.968 48.1863 21.776 47.2903 22.352C46.3943 22.912 45.3943 23.192 44.2903 23.192C43.3463 23.192 42.5223 23.008 41.8183 22.64C41.1143 22.256 40.5623 21.752 40.1623 21.128V23H36.0583V5.23999H40.1623V11.504ZM46.0183 16.28C46.0183 15.256 45.7303 14.456 45.1543 13.88C44.5943 13.288 43.8983 12.992 43.0663 12.992C42.2503 12.992 41.5543 13.288 40.9783 13.88C40.4183 14.472 40.1383 15.28 40.1383 16.304C40.1383 17.328 40.4183 18.136 40.9783 18.728C41.5543 19.32 42.2503 19.616 43.0663 19.616C43.8823 19.616 44.5783 19.32 45.1543 18.728C45.7303 18.12 46.0183 17.304 46.0183 16.28Z" fill="white"/>
<path d="M56.4514 11.504C56.8354 10.88 57.3874 10.376 58.1074 9.99199C58.8274 9.60799 59.6514 9.41599 60.5794 9.41599C61.6834 9.41599 62.6834 9.69599 63.5794 10.256C64.4754 10.816 65.1794 11.616 65.6914 12.656C66.2194 13.696 66.4834 14.904 66.4834 16.28C66.4834 17.656 66.2194 18.872 65.6914 19.928C65.1794 20.968 64.4754 21.776 63.5794 22.352C62.6834 22.912 61.6834 23.192 60.5794 23.192C59.6354 23.192 58.8114 23.008 58.1074 22.64C57.4034 22.256 56.8514 21.752 56.4514 21.128V23H52.3474V5.23999H56.4514V11.504ZM62.3074 16.28C62.3074 15.256 62.0194 14.456 61.4434 13.88C60.8834 13.288 60.1874 12.992 59.3554 12.992C58.5394 12.992 57.8434 13.288 57.2674 13.88C56.7074 14.472 56.4274 15.28 56.4274 16.304C56.4274 17.328 56.7074 18.136 57.2674 18.728C57.8434 19.32 58.5394 19.616 59.3554 19.616C60.1714 19.616 60.8674 19.32 61.4434 18.728C62.0194 18.12 62.3074 17.304 62.3074 16.28Z" fill="white"/>
<path d="M72.7404 9.60799V23H68.6364V9.60799H72.7404Z" fill="white"/>
<path d="M88.3386 16.088C88.3386 16.472 88.3146 16.872 88.2666 17.288H78.9786C79.0426 18.12 79.3066 18.76 79.7706 19.208C80.2506 19.64 80.8346 19.856 81.5226 19.856C82.5466 19.856 83.2586 19.424 83.6586 18.56H88.0266C87.8026 19.44 87.3946 20.232 86.8026 20.936C86.2266 21.64 85.4986 22.192 84.6186 22.592C83.7386 22.992 82.7546 23.192 81.6666 23.192C80.3546 23.192 79.1866 22.912 78.1626 22.352C77.1386 21.792 76.3386 20.992 75.7626 19.952C75.1866 18.912 74.8986 17.696 74.8986 16.304C74.8986 14.912 75.1786 13.696 75.7386 12.656C76.3146 11.616 77.1146 10.816 78.1386 10.256C79.1626 9.69599 80.3386 9.41599 81.6666 9.41599C82.9626 9.41599 84.1146 9.68799 85.1226 10.232C86.1306 10.776 86.9146 11.552 87.4746 12.56C88.0506 13.568 88.3386 14.744 88.3386 16.088ZM84.1386 15.008C84.1386 14.304 83.8986 13.744 83.4186 13.328C82.9386 12.912 82.3386 12.704 81.6186 12.704C80.9306 12.704 80.3466 12.904 79.8666 13.304C79.4026 13.704 79.1146 14.272 79.0026 15.008H84.1386Z" fill="white"/>
<path d="M72.498 0C71.6835 0 70.9545 0.396 70.5 1.0035C70.0455 0.396 69.3165 0 68.502 0C67.1205 0 66 1.125 66 2.5155C66 3.051 66.0855 3.54602 66.234 4.00502C66.945 6.25502 69.1365 7.60052 70.221 7.96952C70.374 8.02352 70.626 8.02352 70.779 7.96952C71.8635 7.60052 74.055 6.25502 74.766 4.00502C74.9145 3.54602 75 3.051 75 2.5155C75 1.125 73.8795 0 72.498 0Z" fill="#E72C03"/>
</svg>
