<svg width="27" height="28" viewBox="0 0 27 28" fill="none" xmlns="http://www.w3.org/2000/svg">
                <path
                  d="M26.1164 18.9235C25.899 18.5567 25.2877 17.9861 23.7661 18.2578C22.9238 18.4072 22.068 18.4752 21.2121 18.4344C18.0467 18.2986 15.1802 16.8449 13.1832 14.6034C11.4171 12.6335 10.3303 10.0659 10.3167 7.29446C10.3167 5.74574 10.6156 4.25136 11.2269 2.83849C11.8246 1.46637 11.4035 0.746354 11.1046 0.447478C10.7922 0.135016 10.0586 -0.299713 8.61856 0.298039C3.06218 2.63471 -0.374894 8.20467 0.0326647 14.1686C0.440223 19.7794 4.37995 24.575 9.5967 26.3818C10.8465 26.8165 12.1643 27.0747 13.5228 27.129C13.7402 27.1426 13.9575 27.1562 14.1749 27.1562C18.726 27.1562 22.9918 25.0097 25.6816 21.3553C26.5919 20.0918 26.3473 19.2903 26.1164 18.9235Z"
                  fill="black" />
              </svg>