<svg width="27" height="27" viewBox="0 0 27 27" fill="none" xmlns="http://www.w3.org/2000/svg">
<path d="M13.1879 21.58C17.8228 21.58 21.5801 17.8227 21.5801 13.1878C21.5801 8.55289 17.8228 4.79556 13.1879 4.79556C8.55298 4.79556 4.79565 8.55289 4.79565 13.1878C4.79565 17.8227 8.55298 21.58 13.1879 21.58Z" fill="white"/>
<path d="M13.1878 26.3276C12.5284 26.3276 11.9889 25.836 11.9889 25.1766V25.0807C11.9889 24.4213 12.5284 23.8819 13.1878 23.8819C13.8472 23.8819 14.3867 24.4213 14.3867 25.0807C14.3867 25.7401 13.8472 26.3276 13.1878 26.3276ZM21.7478 22.9467C21.4361 22.9467 21.1364 22.8268 20.8966 22.599L20.7408 22.4432C20.2732 21.9756 20.2732 21.2203 20.7408 20.7528C21.2083 20.2852 21.9636 20.2852 22.4312 20.7528L22.5871 20.9086C23.0546 21.3762 23.0546 22.1315 22.5871 22.599C22.3593 22.8268 22.0595 22.9467 21.7478 22.9467ZM4.62771 22.9467C4.316 22.9467 4.01628 22.8268 3.7765 22.599C3.30893 22.1315 3.30893 21.3762 3.7765 20.9086L3.93235 20.7528C4.39992 20.2852 5.15522 20.2852 5.62279 20.7528C6.09035 21.2203 6.09035 21.9756 5.62279 22.4432L5.46693 22.599C5.23914 22.8268 4.92743 22.9467 4.62771 22.9467ZM25.1766 14.3867H25.0807C24.4213 14.3867 23.8819 13.8472 23.8819 13.1878C23.8819 12.5284 24.4213 11.9889 25.0807 11.9889C25.7401 11.9889 26.3276 12.5284 26.3276 13.1878C26.3276 13.8472 25.836 14.3867 25.1766 14.3867ZM1.2948 14.3867H1.19889C0.5395 14.3867 0 13.8472 0 13.1878C0 12.5284 0.5395 11.9889 1.19889 11.9889C1.85828 11.9889 2.44573 12.5284 2.44573 13.1878C2.44573 13.8472 1.95419 14.3867 1.2948 14.3867ZM21.592 5.98245C21.2803 5.98245 20.9805 5.86256 20.7408 5.63477C20.2732 5.16721 20.2732 4.41191 20.7408 3.94434L20.8966 3.78849C21.3642 3.32092 22.1195 3.32092 22.5871 3.78849C23.0546 4.25605 23.0546 5.01135 22.5871 5.47892L22.4312 5.63477C22.2034 5.86256 21.9037 5.98245 21.592 5.98245ZM4.78356 5.98245C4.47185 5.98245 4.17213 5.86256 3.93235 5.63477L3.7765 5.46693C3.30893 4.99936 3.30893 4.24406 3.7765 3.7765C4.24406 3.30893 4.99936 3.30893 5.46693 3.7765L5.62279 3.93235C6.09035 4.39992 6.09035 5.15522 5.62279 5.62279C5.395 5.86256 5.08329 5.98245 4.78356 5.98245ZM13.1878 2.44573C12.5284 2.44573 11.9889 1.95419 11.9889 1.2948V1.19889C11.9889 0.5395 12.5284 0 13.1878 0C13.8472 0 14.3867 0.5395 14.3867 1.19889C14.3867 1.85828 13.8472 2.44573 13.1878 2.44573Z" fill="white"/>
</svg>
